<svg width="30" height="30" viewBox="0 0 30 30" fill="none" xmlns="http://www.w3.org/2000/svg">
<rect width="30" height="30" rx="5" fill="#7653FC"/>
<path d="M22.7719 20.6626L19.0742 16.9496C20.0249 15.8584 20.5459 14.4855 20.5459 13.0562C20.5459 9.71688 17.7318 7 14.2729 7C10.8141 7 8 9.71688 8 13.0562C8 16.3956 10.8141 19.1125 14.2729 19.1125C15.5714 19.1125 16.8088 18.7344 17.8668 18.0166L21.5926 21.7578C21.7484 21.9139 21.9578 22 22.1823 22C22.3947 22 22.5963 21.9218 22.7493 21.7796C23.0744 21.4776 23.0848 20.9768 22.7719 20.6626ZM14.2729 8.57989C16.8296 8.57989 18.9094 10.5879 18.9094 13.0562C18.9094 15.5246 16.8296 17.5326 14.2729 17.5326C11.7163 17.5326 9.63642 15.5246 9.63642 13.0562C9.63642 10.5879 11.7163 8.57989 14.2729 8.57989Z" fill="white"/>
</svg>
